<svg width="40" height="32" viewBox="0 0 40 32" fill="none" xmlns="http://www.w3.org/2000/svg">
<path d="M38.6692 5.16346C37.8707 4.32696 36.7681 3.83266 35.5133 3.83266H29.2015V3.75661C29.2015 2.80604 28.8213 1.8935 28.1749 1.28513C27.5285 0.638742 26.654 0.258514 25.7034 0.258514H14.2966C13.308 0.258514 12.4335 0.638742 11.7871 1.28513C11.1407 1.93152 10.7605 2.80604 10.7605 3.75661V3.83266H4.48669C3.23194 3.83266 2.12928 4.32696 1.3308 5.16346C0.532319 5.96194 0 7.10262 0 8.31935V27.2547C0 28.5095 0.494297 29.6121 1.3308 30.4106C2.12928 31.2091 3.26996 31.7414 4.48669 31.7414H35.5133C36.7681 31.7414 37.8707 31.2471 38.6692 30.4106C39.4677 29.6121 40 28.4714 40 27.2547V8.31935C40 7.0646 39.5057 5.96194 38.6692 5.16346ZM38.0228 27.2547H37.9848C37.9848 27.9391 37.7186 28.5475 37.2624 29.0038C36.8061 29.46 36.1977 29.7262 35.5133 29.7262H4.48669C3.80228 29.7262 3.19392 29.46 2.73764 29.0038C2.28137 28.5475 2.01521 27.9391 2.01521 27.2547V8.31935C2.01521 7.63494 2.28137 7.02657 2.73764 6.5703C3.19392 6.11403 3.80228 5.84787 4.48669 5.84787H11.8251C12.3954 5.84787 12.8517 5.39159 12.8517 4.82125V3.71859C12.8517 3.30034 13.0038 2.92011 13.27 2.65395C13.5361 2.38779 13.9164 2.2357 14.3346 2.2357H25.7034C26.1217 2.2357 26.5019 2.38779 26.7681 2.65395C27.0342 2.92011 27.1863 3.30034 27.1863 3.71859V4.82125C27.1863 5.39159 27.6426 5.84787 28.2129 5.84787H35.5513C36.2357 5.84787 36.8441 6.11403 37.3004 6.5703C37.7567 7.02657 38.0228 7.63494 38.0228 8.31935V27.2547Z" fill="#282828"/>
<path d="M20.0001 8.43341C17.4145 8.43341 15.0571 9.49805 13.3841 11.1711C11.6731 12.8821 10.6465 15.2015 10.6465 17.787C10.6465 20.3726 11.7111 22.73 13.3841 24.403C15.0952 26.114 17.4145 27.1407 20.0001 27.1407C22.5857 27.1407 24.9431 26.076 26.6161 24.403C28.3271 22.692 29.3537 20.3726 29.3537 17.787C29.3537 15.2015 28.2891 12.8441 26.6161 11.1711C24.9431 9.49805 22.5857 8.43341 20.0001 8.43341ZM25.1712 22.9962C23.8404 24.2889 22.0153 25.1254 20.0001 25.1254C17.9849 25.1254 16.1598 24.2889 14.829 22.9962C13.4982 21.6654 12.6997 19.8403 12.6997 17.8251C12.6997 15.8098 13.5362 13.9847 14.829 12.6539C16.1598 11.3231 17.9849 10.5247 20.0001 10.5247C22.0153 10.5247 23.8404 11.3612 25.1712 12.6539C26.502 13.9847 27.3005 15.8098 27.3005 17.8251C27.3385 19.8403 26.502 21.6654 25.1712 22.9962Z" fill="#282828"/>
<path d="M33.5369 12.1217C34.5659 12.1217 35.4001 11.2875 35.4001 10.2585C35.4001 9.22956 34.5659 8.39542 33.5369 8.39542C32.508 8.39542 31.6738 9.22956 31.6738 10.2585C31.6738 11.2875 32.508 12.1217 33.5369 12.1217Z" fill="#282828"/>
</svg>
