<svg width="10" height="10" viewBox="0 0 10 10" fill="none" xmlns="http://www.w3.org/2000/svg">
<path d="M5.91627 5.00007L9.81015 1.10608C10.0636 0.852787 10.0636 0.443255 9.81015 0.189966C9.55686 -0.0633221 9.14733 -0.0633221 8.89404 0.189966L5.00004 4.08396L1.10616 0.189966C0.852758 -0.0633221 0.443344 -0.0633221 0.190055 0.189966C-0.0633518 0.443255 -0.0633518 0.852787 0.190055 1.10608L4.08394 5.00007L0.190055 8.89407C-0.0633518 9.14736 -0.0633518 9.55689 0.190055 9.81018C0.316284 9.93653 0.482256 10 0.64811 10C0.813963 10 0.979817 9.93653 1.10616 9.81018L5.00004 5.91618L8.89404 9.81018C9.02039 9.93653 9.18624 10 9.3521 10C9.51795 10 9.6838 9.93653 9.81015 9.81018C10.0636 9.55689 10.0636 9.14736 9.81015 8.89407L5.91627 5.00007Z" fill="#282828"/>
</svg>
