<svg width="30" height="26" viewBox="0 0 30 26" fill="none" xmlns="http://www.w3.org/2000/svg">
<path d="M19.4239 9.79993L19.8578 9.36597C20.2477 8.9761 20.2477 8.3428 19.8578 7.95294L12.6322 0.727252C12.2423 0.339154 11.609 0.33739 11.2191 0.727252L0.292397 11.6557C-0.0974656 12.0456 -0.0974656 12.6789 0.292397 13.0688L7.51808 20.2945C7.87266 20.649 8.42835 20.6773 8.81998 20.3862V11.5111C8.81998 10.5691 9.58735 9.8017 10.5294 9.8017H19.4239V9.79993ZM13.9217 4.75465L15.8481 6.67927L12.9603 9.56707L11.0339 7.64246L13.9217 4.75465Z" fill="#282828"/>
<path d="M27.8172 10.9836H12.3638C11.1607 10.9836 10.1816 11.9627 10.1816 13.1658V23.3834C10.1816 24.5865 11.1607 25.5656 12.3638 25.5656H27.8172C29.0238 25.5656 29.9994 24.5847 29.9994 23.3834V13.1658C29.9994 11.9627 29.022 10.9836 27.8172 10.9836ZM29.0538 23.3851C29.0538 24.0661 28.4999 24.62 27.8172 24.62H12.3638C11.6829 24.62 11.129 24.0661 11.129 23.3851V18.2764H29.0556L29.0538 23.3851ZM29.0538 15.8208H11.1272V13.1676C11.1272 12.4866 11.6811 11.931 12.362 11.931H27.8154C28.4981 11.931 29.052 12.4849 29.052 13.1676L29.0538 15.8208Z" fill="#282828"/>
</svg>
