<svg width="40" height="40" viewBox="0 0 40 40" fill="none" xmlns="http://www.w3.org/2000/svg">
<g clip-path="url(#clip0)">
<path d="M18.4214 27.1301C18.7262 26.8247 18.7262 26.3303 18.4214 26.0248C18.1162 25.7202 17.6218 25.7202 17.3163 26.0248C17.0117 26.3303 17.0117 26.8247 17.3163 27.1301C17.6218 27.4347 18.1162 27.4347 18.4214 27.1301Z" fill="#0D6DE8"/>
<path d="M14.7227 8.59131C14.7227 13.3286 18.5767 17.1829 23.314 17.1829C28.0512 17.1829 31.9053 13.3286 31.9053 8.59131C31.9053 3.85407 28.0512 0 23.314 0C18.5767 0 14.7227 3.85407 14.7227 8.59131ZM30.3434 8.59131C30.3434 12.4674 27.19 15.6207 23.314 15.6207C19.4379 15.6207 16.2845 12.4674 16.2845 8.59131C16.2845 4.71558 19.4379 1.5622 23.314 1.5622C27.19 1.5622 30.3434 4.71558 30.3434 8.59131Z" fill="#0D6DE8"/>
<path d="M9.03527 39.769C9.338 40.0742 9.83086 40.0775 10.1376 39.7754L13.9242 36.0449C14.5675 35.4016 14.7631 34.4492 14.4802 33.6212L15.2947 32.8357C15.7333 32.4121 16.3107 32.1787 16.921 32.1787H27.304C29.1461 32.1787 30.8871 31.4713 32.207 30.1868C32.2613 30.134 31.7947 30.6836 39.2904 21.7249C40.4022 20.4096 40.2358 18.4345 38.9193 17.3215C37.611 16.2189 35.6512 16.3773 34.5364 17.67L29.9276 22.4069C29.3456 21.6907 28.4582 21.2442 27.4993 21.2442H18.7899C17.5506 20.7257 16.2356 20.4633 14.8788 20.4633C11.1178 20.4633 7.83379 22.2003 6.0714 25.4572C5.32891 25.3165 4.54583 25.5411 3.98247 26.1044L0.266953 29.8309C-0.0363917 30.1352 -0.0370021 30.6275 0.265732 30.9326L9.03527 39.769ZM14.8785 22.0252C16.0748 22.0252 17.2314 22.2659 18.3169 22.7408C18.4158 22.7841 18.5223 22.8064 18.63 22.8064H27.4993C28.3462 22.8064 29.0615 23.497 29.0615 24.3683C29.0615 25.2298 28.3608 25.9305 27.4993 25.9305H21.1269C20.6957 25.9305 20.346 26.2802 20.346 26.7114C20.346 27.143 20.6957 27.4924 21.1269 27.4924H27.4993C29.222 27.4924 30.6234 26.091 30.6234 24.3683C30.6234 24.231 30.6136 24.0949 30.5959 23.96C35.0543 19.3771 35.6829 18.7332 35.7098 18.7012C36.2664 18.0441 37.2546 17.9608 37.9119 18.515C38.5699 19.0714 38.6532 20.0589 38.095 20.7196L31.0897 29.0942C30.0668 30.0763 28.7237 30.6168 27.304 30.6168H16.921C15.9036 30.6168 14.9404 31.0059 14.2098 31.7117L13.5461 32.3523L7.4273 26.2338C8.85735 23.551 11.5408 22.0252 14.8785 22.0252ZM5.08782 27.2083C5.34539 26.9507 5.74089 26.9043 6.05492 27.0984C6.19011 27.1808 5.80193 26.8274 12.8198 33.8355C13.1319 34.1477 13.1152 34.6451 12.824 34.9362L9.59588 38.1165L1.92162 30.3836L5.08782 27.2083Z" fill="#0D6DE8"/>
<path d="M22.3768 3.90534V4.82056C21.4677 5.14282 20.8146 6.01105 20.8146 7.02942C20.8146 8.32123 21.8656 9.37256 23.1577 9.37256C23.5883 9.37256 23.9387 9.7229 23.9387 10.1535C23.9387 10.5841 23.5883 10.9345 23.1577 10.9345C22.8242 10.9345 22.4637 10.7248 22.1436 10.3436C21.8659 10.0134 21.3734 9.97101 21.0432 10.2484C20.713 10.5261 20.6702 11.0187 20.9479 11.3489C21.3654 11.8454 21.8564 12.1915 22.3768 12.366V13.2776C22.3768 13.7091 22.7265 14.0585 23.1577 14.0585C23.5889 14.0585 23.9387 13.7091 23.9387 13.2776V12.3624C24.8478 12.0398 25.5009 11.1716 25.5009 10.1535C25.5009 8.86139 24.4498 7.81037 23.1577 7.81037C22.7271 7.81037 22.3768 7.46002 22.3768 7.02942C22.3768 6.59882 22.7271 6.24817 23.1577 6.24817C23.4345 6.24817 23.7266 6.38947 24.0024 6.6565C24.3125 6.95648 24.8069 6.94825 25.1069 6.63849C25.4069 6.32843 25.3986 5.83405 25.0889 5.53406C24.6924 5.15045 24.2957 4.93347 23.9387 4.81507V3.90534C23.9387 3.47382 23.5889 3.12409 23.1577 3.12409C22.7265 3.12409 22.3768 3.47382 22.3768 3.90534Z" fill="#0D6DE8"/>
</g>
<defs>
<clipPath id="clip0">
<rect width="39.9219" height="40" fill="white"/>
</clipPath>
</defs>
</svg>
