<svg width="40" height="40" viewBox="0 0 40 40" fill="none" xmlns="http://www.w3.org/2000/svg">
<g clip-path="url(#clip0)">
<path d="M38.9123 29.3045C38.7726 29.1542 38.6218 29.0147 38.461 28.8871L22.6284 15.2803L24.2565 13.5421C24.4442 13.5692 24.6332 13.5849 24.8228 13.5893C25.6413 13.6287 26.4385 13.3201 27.0172 12.7399C27.8037 11.8826 27.961 10.5533 27.4026 8.99603C26.8009 7.44157 25.8479 6.04717 24.6183 4.92185C21.716 2.19262 18.2239 1.35105 16.6823 2.99487C16.0317 3.77441 15.7974 4.82009 16.0531 5.80275L8.471 13.8646C7.47527 13.6645 6.44424 13.9574 5.70245 14.6511C4.12941 16.2949 5.22267 19.7242 8.1328 22.4534C10.0362 24.2388 12.1912 25.2141 13.8823 25.2141C14.697 25.2533 15.4906 24.9479 16.0688 24.3725C16.7193 23.593 16.9536 22.5473 16.698 21.5646L18.3261 19.85L32.9554 34.8411C34.4843 36.4861 37.0572 36.5801 38.7022 35.0512C40.3472 33.5223 40.4412 30.9495 38.9123 29.3045ZM17.7991 4.07251C18.5857 3.22306 21.2048 3.89947 23.5171 6.07027C24.5737 7.01813 25.3973 8.19702 25.9239 9.51523C26.27 10.4748 26.2464 11.2534 25.8767 11.6467C25.3104 12.049 24.5781 12.1349 23.934 11.8748L17.7048 6.03094C17.3993 5.40487 17.4349 4.66623 17.7991 4.07251ZM14.9205 23.3265C14.134 24.176 11.5148 23.4996 9.20247 21.3288C6.8901 19.158 6.05638 16.6097 6.8429 15.7523C7.4092 15.35 8.14155 15.2641 8.78561 15.5243L15.0227 21.3681C15.3273 21.9952 15.2887 22.7346 14.9205 23.3265ZM17.225 18.7333L15.9665 20.0861L10.0126 14.4939L16.7531 7.31297L22.707 12.9209L19.3329 16.5231L17.225 18.7333ZM37.5565 33.5749C36.6228 34.5695 35.0634 34.629 34.0565 33.7086L19.4115 18.7097L21.5587 16.4209L37.4464 30.0513C38.4496 30.994 38.4989 32.5714 37.5565 33.5749Z" fill="#0D6DE8"/>
<path d="M15.3155 31.9768C15.3096 31.9773 15.3037 31.9777 15.2978 31.9782H15.2585V31.7108C15.2119 30.8446 14.4731 30.1796 13.6068 30.2242H3.31125C2.451 30.1885 1.72189 30.851 1.67529 31.7108V31.9782H1.63596C0.805004 31.9064 0.0732448 32.5218 0.00137641 33.3526C0.000884836 33.3585 0.000393261 33.3644 0 33.3703V36.4378C0.057711 37.2698 0.779049 37.8974 1.61109 37.8397C1.61945 37.8391 1.62771 37.8385 1.63596 37.8378H15.2978C16.1288 37.9092 16.8604 37.2936 16.9318 36.4626C16.9325 36.4544 16.9332 36.446 16.9338 36.4378V33.3703C16.8718 32.5387 16.1472 31.9148 15.3155 31.9768ZM15.3608 36.2648H1.57304V33.5513H2.46181C2.89617 33.5513 3.24833 33.1992 3.24833 32.7648V31.7974H13.6855V32.7569C13.6855 33.1913 14.0376 33.5435 14.472 33.5435H15.3608V36.2648Z" fill="#0D6DE8"/>
</g>
<defs>
<clipPath id="clip0">
<rect width="40" height="40" fill="white"/>
</clipPath>
</defs>
</svg>
