<svg width="14" height="14" viewBox="0 0 14 14" fill="none" xmlns="http://www.w3.org/2000/svg">
<g clip-path="url(#clip0)">
<path d="M2.7539 7.51393C2.39632 8.21684 2.80232 8.55284 3.72865 9.12684C4.51615 9.61334 5.60407 9.79125 6.3029 9.86242C6.01649 10.1378 7.32899 8.87542 3.54899 12.5113C2.74749 13.2796 4.03782 14.5122 4.83874 13.7602L7.00699 11.669C7.83707 12.4676 8.63274 13.2329 9.17524 13.7632C9.97674 14.518 11.2665 13.2959 10.4737 12.5142C10.4142 12.4577 7.53549 9.69617 7.71107 9.86534C8.41865 9.79417 9.49024 9.60575 10.2684 9.12976L10.2678 9.12917C11.1942 8.55226 11.6002 8.21684 11.2478 7.51393C11.0349 7.11493 10.4609 6.78126 9.69674 7.35818C9.69674 7.35818 8.66482 8.14859 7.00057 8.14859C5.33574 8.14859 4.3044 7.35818 4.3044 7.35818C3.54082 6.77834 2.96449 7.11493 2.7539 7.51393Z" fill="white"/>
<path d="M7.00249 7.08283C9.03132 7.08283 10.688 5.49733 10.688 3.5455C10.688 1.5855 9.03132 0 7.00249 0C4.97307 0 3.31641 1.5855 3.31641 3.5455C3.31641 5.49733 4.97307 7.08283 7.00249 7.08283ZM7.00249 1.79608C7.99941 1.79608 8.81257 2.57833 8.81257 3.5455C8.81257 4.5045 7.99941 5.28675 7.00249 5.28675C6.00557 5.28675 5.19241 4.5045 5.19241 3.5455C5.19182 2.57775 6.00499 1.79608 7.00249 1.79608Z" fill="white"/>
</g>
<defs>
<clipPath id="clip0">
<rect width="14" height="14" fill="white"/>
</clipPath>
</defs>
</svg>
