<svg width="20" height="20" viewBox="0 0 20 20" fill="none" xmlns="http://www.w3.org/2000/svg">
<g clip-path="url(#clip0)">
<path d="M18.1206 4.47037L17.679 3.14667C17.5109 2.64252 17.0408 2.30377 16.5094 2.30377H12.7981V1.09543C12.7981 0.491486 12.307 0 11.7032 0H8.30449C7.70086 0 7.20968 0.491486 7.20968 1.09543V2.30377H3.49843C2.96697 2.30377 2.49685 2.64252 2.3287 3.14667L1.88711 4.47037C1.78655 4.77173 1.83752 5.10544 2.02321 5.36316C2.20891 5.62088 2.50936 5.77484 2.82705 5.77484H3.28863L4.30456 18.3376C4.38009 19.2697 5.1711 20 6.1057 20H14.1082C15.0426 20 15.8338 19.2697 15.9092 18.3374L16.9251 5.77484H17.1807C17.4984 5.77484 17.7988 5.62088 17.9845 5.36331C18.1702 5.10559 18.2212 4.77173 18.1206 4.47037ZM8.38155 1.17188H11.6262V2.30377H8.38155V1.17188ZM14.7411 18.243C14.7146 18.5712 14.4365 18.8281 14.1082 18.8281H6.1057C5.77733 18.8281 5.49932 18.5712 5.47277 18.243L4.46432 5.77484H15.7494L14.7411 18.243ZM3.07836 4.60297L3.44045 3.51746C3.44869 3.49243 3.47204 3.47565 3.49843 3.47565H16.5094C16.5358 3.47565 16.559 3.49243 16.5674 3.51746L16.9295 4.60297H3.07836Z" fill="#DB291D"/>
<path d="M12.8719 18.2015C12.8822 18.2021 12.8925 18.2022 12.9028 18.2022C13.2124 18.2022 13.4712 17.9596 13.4874 17.6468L14.0376 7.08437C14.0544 6.76119 13.806 6.48546 13.483 6.46868C13.159 6.45144 12.8842 6.70016 12.8673 7.02334L12.3172 17.5858C12.3004 17.909 12.5487 18.1847 12.8719 18.2015Z" fill="#DB291D"/>
<path d="M6.5458 17.6481C6.56289 17.9605 6.82137 18.2022 7.13036 18.2022C7.14104 18.2022 7.15203 18.2019 7.16286 18.2013C7.48589 18.1837 7.73354 17.9075 7.71599 17.5844L7.13967 7.02192C7.12212 6.69874 6.84594 6.45109 6.52276 6.46879C6.19973 6.48634 5.95208 6.76252 5.96963 7.0857L6.5458 17.6481Z" fill="#DB291D"/>
<path d="M10.0098 18.2022C10.3334 18.2022 10.5957 17.9399 10.5957 17.6163V7.05383C10.5957 6.73019 10.3334 6.4679 10.0098 6.4679C9.68613 6.4679 9.42383 6.73019 9.42383 7.05383V17.6163C9.42383 17.9399 9.68613 18.2022 10.0098 18.2022Z" fill="#DB291D"/>
</g>
<defs>
<clipPath id="clip0">
<rect width="20" height="20" fill="white"/>
</clipPath>
</defs>
</svg>
