<svg width="25" height="25" viewBox="0 0 25 25" fill="none" xmlns="http://www.w3.org/2000/svg">
<path d="M12.3496 14.6484H12.5C14.0995 14.6516 15.6355 14.0229 16.7738 12.8993C17.9121 11.7756 18.5607 10.2479 18.5783 8.64854C18.5959 7.04916 17.9811 5.50754 16.8678 4.35912C15.7545 3.2107 14.2327 2.54841 12.6336 2.51636C11.0344 2.4843 9.48728 3.08508 8.32884 4.18796C7.1704 5.29085 6.49438 6.8066 6.44788 8.4054C6.40138 10.0042 6.98815 11.5567 8.08052 12.725C9.1729 13.8934 10.6825 14.5831 12.2808 14.644C12.2845 14.6445 12.2881 14.6451 12.2918 14.6455C12.3111 14.6474 12.3304 14.6484 12.3496 14.6484ZM7.61722 8.59373C7.61722 7.628 7.90359 6.68396 8.44012 5.88099C8.97665 5.07802 9.73924 4.45218 10.6315 4.08261C11.5237 3.71304 12.5054 3.61634 13.4526 3.80475C14.3998 3.99315 15.2698 4.45819 15.9527 5.14107C16.6356 5.82394 17.1006 6.69397 17.289 7.64114C17.4774 8.58832 17.3807 9.57009 17.0112 10.4623C16.6416 11.3545 16.0158 12.1171 15.2128 12.6536C14.4098 13.1902 13.4658 13.4765 12.5 13.4765C11.2055 13.4751 9.96436 12.9602 9.04897 12.0448C8.13358 11.1294 7.61868 9.88829 7.61722 8.59373Z" fill="#0D6DE8"/>
<path d="M21.8479 18.9275L17.9221 15.0017C18.8547 14.2146 19.6043 13.2334 20.1184 12.1266C20.6324 11.0198 20.8987 9.81411 20.8984 8.59375C20.8984 3.96284 17.1309 0.195312 12.5 0.195312C7.86909 0.195312 4.10156 3.96284 4.10156 8.59375C4.10156 12.1947 6.37974 15.2731 9.57031 16.4648V24.2188C9.55566 24.6723 10.112 24.9699 10.4813 24.7063L12.5 23.3604L14.5187 24.7063C14.8886 24.9699 15.444 24.6721 15.4297 24.2188V20.7955L17.7051 23.0706C18.0173 23.4021 18.6187 23.2183 18.694 22.7711L19.1696 20.392L21.5487 19.9164C21.9961 19.8416 22.1788 19.238 21.8479 18.9275ZM5.27344 8.59375C5.27344 4.60903 8.51528 1.36719 12.5 1.36719C16.4847 1.36719 19.7266 4.60903 19.7266 8.59375C19.7266 12.5785 16.4847 15.8203 12.5 15.8203C8.51528 15.8203 5.27344 12.5785 5.27344 8.59375ZM12.825 22.1687C12.7288 22.1046 12.6157 22.0704 12.5 22.0704C12.3843 22.0704 12.2712 22.1046 12.175 22.1687L10.7422 23.1239V16.8066C11.901 17.0542 13.099 17.0542 14.2578 16.8066V23.124L12.825 22.1687ZM18.5565 19.3195C18.443 19.3422 18.3388 19.3979 18.257 19.4797C18.1752 19.5615 18.1195 19.6657 18.0968 19.7792L17.7592 21.4677L15.4297 19.1381V16.4648C15.9666 16.2642 16.4814 16.009 16.9662 15.7031L20.245 18.982L18.5565 19.3195Z" fill="#0D6DE8"/>
<path d="M14.0441 11.5715C14.4518 11.8007 14.9841 11.4147 14.8921 10.9554L14.6069 9.23935L15.8463 8.01865C16.1905 7.70127 15.9875 7.07627 15.5224 7.02183L13.8022 6.76274L13.0242 5.20674C12.8285 4.7813 12.1718 4.7814 11.9761 5.20674L11.1981 6.7627L9.47789 7.02178C9.01275 7.07642 8.80987 7.70102 9.15396 8.0186L10.3934 9.23931L10.1082 10.9554C10.0165 11.4146 10.5477 11.8006 10.9562 11.5715L12.5002 10.77L14.0441 11.5715ZM11.4562 9.9915L11.5992 9.1314C11.6146 9.0387 11.6075 8.94366 11.5784 8.8543C11.5494 8.76493 11.4993 8.68386 11.4323 8.61792L10.8112 8.00605L11.6734 7.87617C11.7663 7.86218 11.8545 7.82604 11.9306 7.7708C12.0066 7.71557 12.0682 7.64285 12.1103 7.55879L12.5002 6.77895L12.89 7.55884C12.9321 7.6429 12.9937 7.71562 13.0697 7.77085C13.1458 7.82609 13.234 7.86223 13.3269 7.87622L14.1891 8.0061L13.5679 8.61816C13.5009 8.6841 13.4508 8.76517 13.4218 8.85454C13.3928 8.94391 13.3856 9.03895 13.401 9.13164L13.544 9.99175L12.7701 9.58984C12.6867 9.54655 12.5941 9.52394 12.5002 9.52394C12.4062 9.52394 12.3136 9.54655 12.2302 9.58984L11.4562 9.9915Z" fill="#0D6DE8"/>
</svg>
